# MagicaVoxel @ Ephtracy

# group
g circle rug

# material
mtllib circle rug.mtl
usemtl palette

# normals
vn -1 0 0
vn 1 0 0
vn 0 0 1
vn 0 0 -1
vn 0 -1 0
vn 0 1 0

# texcoords
vt 0.845703 0.5
vt 0.962891 0.5

# verts
v -9 0 3
v -9 0 -3
v -9 1 3
v -9 1 -3
v -8 0 5
v -8 0 3
v -8 0 -3
v -8 0 -5
v -8 1 5
v -8 1 3
v -8 1 -3
v -8 1 -5
v -7 0 7
v -7 0 5
v -7 0 -5
v -7 0 -7
v -7 1 7
v -7 1 5
v -7 1 -5
v -7 1 -7
v -5 0 8
v -5 0 7
v -5 0 -7
v -5 0 -8
v -5 1 8
v -5 1 7
v -5 1 -7
v -5 1 -8
v -3 0 9
v -3 0 8
v -3 0 -8
v -3 0 -9
v -3 1 9
v -3 1 8
v -3 1 -8
v -3 1 -9
v 3 0 9
v 3 0 8
v 3 0 -8
v 3 0 -9
v 3 1 9
v 3 1 8
v 3 1 -8
v 3 1 -9
v 5 0 8
v 5 0 7
v 5 0 -7
v 5 0 -8
v 5 1 8
v 5 1 7
v 5 1 -7
v 5 1 -8
v 7 0 7
v 7 0 5
v 7 0 -5
v 7 0 -7
v 7 1 7
v 7 1 5
v 7 1 -5
v 7 1 -7
v 8 0 5
v 8 0 3
v 8 0 -3
v 8 0 -5
v 8 1 5
v 8 1 3
v 8 1 -3
v 8 1 -5
v 9 0 3
v 9 0 -3
v 9 1 3
v 9 1 -3
v -3 0 9
v -3 1 9
v 3 0 9
v 3 1 9
v -5 0 8
v -5 1 8
v -3 0 8
v -3 1 8
v 3 0 8
v 3 1 8
v 5 0 8
v 5 1 8
v -7 0 7
v -7 1 7
v -5 0 7
v -5 1 7
v 5 0 7
v 5 1 7
v 7 0 7
v 7 1 7
v -8 0 5
v -8 1 5
v -7 0 5
v -7 1 5
v 7 0 5
v 7 1 5
v 8 0 5
v 8 1 5
v -9 0 3
v -9 1 3
v -8 0 3
v -8 1 3
v 8 0 3
v 8 1 3
v 9 0 3
v 9 1 3
v -9 0 -3
v -9 1 -3
v -8 0 -3
v -8 1 -3
v 8 0 -3
v 8 1 -3
v 9 0 -3
v 9 1 -3
v -8 0 -5
v -8 1 -5
v -7 0 -5
v -7 1 -5
v 7 0 -5
v 7 1 -5
v 8 0 -5
v 8 1 -5
v -7 0 -7
v -7 1 -7
v -5 0 -7
v -5 1 -7
v 5 0 -7
v 5 1 -7
v 7 0 -7
v 7 1 -7
v -5 0 -8
v -5 1 -8
v -3 0 -8
v -3 1 -8
v 3 0 -8
v 3 1 -8
v 5 0 -8
v 5 1 -8
v -3 0 -9
v -3 1 -9
v 3 0 -9
v 3 1 -9
v -3 0 9
v 3 0 9
v -5 0 8
v -3 0 8
v 3 0 8
v 5 0 8
v -7 0 7
v -5 0 7
v -3 0 7
v 3 0 7
v 5 0 7
v 7 0 7
v -6 0 6
v -5 0 6
v -3 0 6
v 3 0 6
v 5 0 6
v 6 0 6
v -8 0 5
v -7 0 5
v -6 0 5
v -5 0 5
v 5 0 5
v 6 0 5
v 7 0 5
v 8 0 5
v -9 0 3
v -8 0 3
v -7 0 3
v -6 0 3
v 6 0 3
v 7 0 3
v 8 0 3
v 9 0 3
v -9 0 -3
v -8 0 -3
v -7 0 -3
v -6 0 -3
v 6 0 -3
v 7 0 -3
v 8 0 -3
v 9 0 -3
v -8 0 -5
v -7 0 -5
v -6 0 -5
v -5 0 -5
v 5 0 -5
v 6 0 -5
v 7 0 -5
v 8 0 -5
v -6 0 -6
v -5 0 -6
v -3 0 -6
v 3 0 -6
v 5 0 -6
v 6 0 -6
v -7 0 -7
v -5 0 -7
v -3 0 -7
v 3 0 -7
v 5 0 -7
v 7 0 -7
v -5 0 -8
v -3 0 -8
v 3 0 -8
v 5 0 -8
v -3 0 -9
v 3 0 -9
v -3 1 9
v 3 1 9
v -5 1 8
v -3 1 8
v 3 1 8
v 5 1 8
v -7 1 7
v -5 1 7
v -3 1 7
v 3 1 7
v 5 1 7
v 7 1 7
v -6 1 6
v -5 1 6
v -3 1 6
v 3 1 6
v 5 1 6
v 6 1 6
v -8 1 5
v -7 1 5
v -6 1 5
v -5 1 5
v 5 1 5
v 6 1 5
v 7 1 5
v 8 1 5
v -9 1 3
v -8 1 3
v -7 1 3
v -6 1 3
v 6 1 3
v 7 1 3
v 8 1 3
v 9 1 3
v -9 1 -3
v -8 1 -3
v -7 1 -3
v -6 1 -3
v 6 1 -3
v 7 1 -3
v 8 1 -3
v 9 1 -3
v -8 1 -5
v -7 1 -5
v -6 1 -5
v -5 1 -5
v 5 1 -5
v 6 1 -5
v 7 1 -5
v 8 1 -5
v -6 1 -6
v -5 1 -6
v -3 1 -6
v 3 1 -6
v 5 1 -6
v 6 1 -6
v -7 1 -7
v -5 1 -7
v -3 1 -7
v 3 1 -7
v 5 1 -7
v 7 1 -7
v -5 1 -8
v -3 1 -8
v 3 1 -8
v 5 1 -8
v -3 1 -9
v 3 1 -9

# faces
f 3/1/1 2/1/1 1/1/1
f 4/1/1 2/1/1 3/1/1
f 9/1/1 6/1/1 5/1/1
f 10/1/1 6/1/1 9/1/1
f 11/1/1 8/1/1 7/1/1
f 12/1/1 8/1/1 11/1/1
f 17/1/1 14/1/1 13/1/1
f 18/1/1 14/1/1 17/1/1
f 19/1/1 16/1/1 15/1/1
f 20/1/1 16/1/1 19/1/1
f 25/1/1 22/1/1 21/1/1
f 26/1/1 22/1/1 25/1/1
f 27/1/1 24/1/1 23/1/1
f 28/1/1 24/1/1 27/1/1
f 33/1/1 30/1/1 29/1/1
f 34/1/1 30/1/1 33/1/1
f 35/1/1 32/1/1 31/1/1
f 36/1/1 32/1/1 35/1/1
f 37/1/2 38/1/2 41/1/2
f 41/1/2 38/1/2 42/1/2
f 39/1/2 40/1/2 43/1/2
f 43/1/2 40/1/2 44/1/2
f 45/1/2 46/1/2 49/1/2
f 49/1/2 46/1/2 50/1/2
f 47/1/2 48/1/2 51/1/2
f 51/1/2 48/1/2 52/1/2
f 53/1/2 54/1/2 57/1/2
f 57/1/2 54/1/2 58/1/2
f 55/1/2 56/1/2 59/1/2
f 59/1/2 56/1/2 60/1/2
f 61/1/2 62/1/2 65/1/2
f 65/1/2 62/1/2 66/1/2
f 63/1/2 64/1/2 67/1/2
f 67/1/2 64/1/2 68/1/2
f 69/1/2 70/1/2 71/1/2
f 71/1/2 70/1/2 72/1/2
f 75/1/3 74/1/3 73/1/3
f 76/1/3 74/1/3 75/1/3
f 79/1/3 78/1/3 77/1/3
f 80/1/3 78/1/3 79/1/3
f 83/1/3 82/1/3 81/1/3
f 84/1/3 82/1/3 83/1/3
f 87/1/3 86/1/3 85/1/3
f 88/1/3 86/1/3 87/1/3
f 91/1/3 90/1/3 89/1/3
f 92/1/3 90/1/3 91/1/3
f 95/1/3 94/1/3 93/1/3
f 96/1/3 94/1/3 95/1/3
f 99/1/3 98/1/3 97/1/3
f 100/1/3 98/1/3 99/1/3
f 103/1/3 102/1/3 101/1/3
f 104/1/3 102/1/3 103/1/3
f 107/1/3 106/1/3 105/1/3
f 108/1/3 106/1/3 107/1/3
f 109/1/4 110/1/4 111/1/4
f 111/1/4 110/1/4 112/1/4
f 113/1/4 114/1/4 115/1/4
f 115/1/4 114/1/4 116/1/4
f 117/1/4 118/1/4 119/1/4
f 119/1/4 118/1/4 120/1/4
f 121/1/4 122/1/4 123/1/4
f 123/1/4 122/1/4 124/1/4
f 125/1/4 126/1/4 127/1/4
f 127/1/4 126/1/4 128/1/4
f 129/1/4 130/1/4 131/1/4
f 131/1/4 130/1/4 132/1/4
f 133/1/4 134/1/4 135/1/4
f 135/1/4 134/1/4 136/1/4
f 137/1/4 138/1/4 139/1/4
f 139/1/4 138/1/4 140/1/4
f 141/1/4 142/1/4 143/1/4
f 143/1/4 142/1/4 144/1/4
f 148/1/5 146/1/5 145/1/5
f 149/1/5 146/1/5 148/1/5
f 152/1/5 148/1/5 147/1/5
f 153/2/5 149/2/5 148/2/5
f 153/1/5 148/1/5 152/1/5
f 154/1/5 150/1/5 149/1/5
f 154/2/5 149/2/5 153/2/5
f 155/1/5 150/1/5 154/1/5
f 157/1/5 152/1/5 151/1/5
f 158/2/5 153/2/5 152/2/5
f 158/1/5 152/1/5 157/1/5
f 159/1/5 154/1/5 153/1/5
f 159/2/5 153/2/5 158/2/5
f 160/2/5 155/2/5 154/2/5
f 160/1/5 154/1/5 159/1/5
f 161/1/5 156/1/5 155/1/5
f 161/2/5 155/2/5 160/2/5
f 162/1/5 156/1/5 161/1/5
f 164/1/5 157/1/5 151/1/5
f 165/2/5 158/2/5 157/2/5
f 165/1/5 157/1/5 164/1/5
f 166/1/5 160/1/5 159/1/5
f 166/2/5 158/2/5 165/2/5
f 166/1/5 159/1/5 158/1/5
f 166/1/5 161/1/5 160/1/5
f 167/2/5 162/2/5 161/2/5
f 167/1/5 161/1/5 166/1/5
f 168/1/5 156/1/5 162/1/5
f 168/2/5 162/2/5 167/2/5
f 169/1/5 156/1/5 168/1/5
f 172/1/5 164/1/5 163/1/5
f 173/2/5 165/2/5 164/2/5
f 173/1/5 164/1/5 172/1/5
f 174/1/5 167/1/5 166/1/5
f 174/2/5 165/2/5 173/2/5
f 174/1/5 166/1/5 165/1/5
f 174/1/5 168/1/5 167/1/5
f 175/2/5 169/2/5 168/2/5
f 175/1/5 168/1/5 174/1/5
f 176/1/5 170/1/5 169/1/5
f 176/2/5 169/2/5 175/2/5
f 177/1/5 170/1/5 176/1/5
f 179/1/5 172/1/5 171/1/5
f 180/2/5 173/2/5 172/2/5
f 180/1/5 172/1/5 179/1/5
f 181/1/5 175/1/5 174/1/5
f 181/2/5 173/2/5 180/2/5
f 181/1/5 174/1/5 173/1/5
f 181/1/5 176/1/5 175/1/5
f 182/1/5 176/1/5 181/1/5
f 183/1/5 176/1/5 182/1/5
f 184/2/5 177/2/5 176/2/5
f 184/1/5 176/1/5 183/1/5
f 185/1/5 178/1/5 177/1/5
f 185/2/5 177/2/5 184/2/5
f 186/1/5 178/1/5 185/1/5
f 187/1/5 181/1/5 180/1/5
f 188/2/5 182/2/5 181/2/5
f 188/1/5 181/1/5 187/1/5
f 189/1/5 183/1/5 182/1/5
f 189/2/5 182/2/5 188/2/5
f 190/1/5 183/1/5 189/1/5
f 191/1/5 183/1/5 190/1/5
f 192/2/5 184/2/5 183/2/5
f 192/1/5 183/1/5 191/1/5
f 193/1/5 185/1/5 184/1/5
f 193/2/5 184/2/5 192/2/5
f 194/1/5 185/1/5 193/1/5
f 195/1/5 189/1/5 188/1/5
f 195/2/5 190/2/5 189/2/5
f 196/1/5 191/1/5 190/1/5
f 196/2/5 190/2/5 195/2/5
f 197/1/5 191/1/5 196/1/5
f 198/1/5 191/1/5 197/1/5
f 199/2/5 192/2/5 191/2/5
f 199/1/5 191/1/5 198/1/5
f 200/1/5 193/1/5 192/1/5
f 200/2/5 192/2/5 199/2/5
f 201/1/5 195/1/5 188/1/5
f 201/1/5 196/1/5 195/1/5
f 202/2/5 197/2/5 196/2/5
f 202/1/5 196/1/5 201/1/5
f 203/1/5 198/1/5 197/1/5
f 203/2/5 197/2/5 202/2/5
f 204/2/5 199/2/5 198/2/5
f 204/1/5 198/1/5 203/1/5
f 205/1/5 200/1/5 199/1/5
f 205/2/5 199/2/5 204/2/5
f 206/1/5 193/1/5 200/1/5
f 206/1/5 200/1/5 205/1/5
f 207/1/5 203/1/5 202/1/5
f 208/2/5 204/2/5 203/2/5
f 208/1/5 203/1/5 207/1/5
f 209/1/5 205/1/5 204/1/5
f 209/2/5 204/2/5 208/2/5
f 210/1/5 205/1/5 209/1/5
f 211/1/5 209/1/5 208/1/5
f 212/1/5 209/1/5 211/1/5
f 213/1/6 214/1/6 216/1/6
f 216/1/6 214/1/6 217/1/6
f 215/1/6 216/1/6 220/1/6
f 216/2/6 217/2/6 221/2/6
f 220/1/6 216/1/6 221/1/6
f 217/1/6 218/1/6 222/1/6
f 221/2/6 217/2/6 222/2/6
f 222/1/6 218/1/6 223/1/6
f 219/1/6 220/1/6 225/1/6
f 220/2/6 221/2/6 226/2/6
f 225/1/6 220/1/6 226/1/6
f 221/1/6 222/1/6 227/1/6
f 226/2/6 221/2/6 227/2/6
f 222/2/6 223/2/6 228/2/6
f 227/1/6 222/1/6 228/1/6
f 223/1/6 224/1/6 229/1/6
f 228/2/6 223/2/6 229/2/6
f 229/1/6 224/1/6 230/1/6
f 219/1/6 225/1/6 232/1/6
f 225/2/6 226/2/6 233/2/6
f 232/1/6 225/1/6 233/1/6
f 227/1/6 228/1/6 234/1/6
f 233/2/6 226/2/6 234/2/6
f 226/1/6 227/1/6 234/1/6
f 228/1/6 229/1/6 234/1/6
f 229/2/6 230/2/6 235/2/6
f 234/1/6 229/1/6 235/1/6
f 230/1/6 224/1/6 236/1/6
f 235/2/6 230/2/6 236/2/6
f 236/1/6 224/1/6 237/1/6
f 231/1/6 232/1/6 240/1/6
f 232/2/6 233/2/6 241/2/6
f 240/1/6 232/1/6 241/1/6
f 234/1/6 235/1/6 242/1/6
f 241/2/6 233/2/6 242/2/6
f 233/1/6 234/1/6 242/1/6
f 235/1/6 236/1/6 242/1/6
f 236/2/6 237/2/6 243/2/6
f 242/1/6 236/1/6 243/1/6
f 237/1/6 238/1/6 244/1/6
f 243/2/6 237/2/6 244/2/6
f 244/1/6 238/1/6 245/1/6
f 239/1/6 240/1/6 247/1/6
f 240/2/6 241/2/6 248/2/6
f 247/1/6 240/1/6 248/1/6
f 242/1/6 243/1/6 249/1/6
f 248/2/6 241/2/6 249/2/6
f 241/1/6 242/1/6 249/1/6
f 243/1/6 244/1/6 249/1/6
f 249/1/6 244/1/6 250/1/6
f 250/1/6 244/1/6 251/1/6
f 244/2/6 245/2/6 252/2/6
f 251/1/6 244/1/6 252/1/6
f 245/1/6 246/1/6 253/1/6
f 252/2/6 245/2/6 253/2/6
f 253/1/6 246/1/6 254/1/6
f 248/1/6 249/1/6 255/1/6
f 249/2/6 250/2/6 256/2/6
f 255/1/6 249/1/6 256/1/6
f 250/1/6 251/1/6 257/1/6
f 256/2/6 250/2/6 257/2/6
f 257/1/6 251/1/6 258/1/6
f 258/1/6 251/1/6 259/1/6
f 251/2/6 252/2/6 260/2/6
f 259/1/6 251/1/6 260/1/6
f 252/1/6 253/1/6 261/1/6
f 260/2/6 252/2/6 261/2/6
f 261/1/6 253/1/6 262/1/6
f 256/1/6 257/1/6 263/1/6
f 257/2/6 258/2/6 263/2/6
f 258/1/6 259/1/6 264/1/6
f 263/2/6 258/2/6 264/2/6
f 264/1/6 259/1/6 265/1/6
f 265/1/6 259/1/6 266/1/6
f 259/2/6 260/2/6 267/2/6
f 266/1/6 259/1/6 267/1/6
f 260/1/6 261/1/6 268/1/6
f 267/2/6 260/2/6 268/2/6
f 256/1/6 263/1/6 269/1/6
f 263/1/6 264/1/6 269/1/6
f 264/2/6 265/2/6 270/2/6
f 269/1/6 264/1/6 270/1/6
f 265/1/6 266/1/6 271/1/6
f 270/2/6 265/2/6 271/2/6
f 266/2/6 267/2/6 272/2/6
f 271/1/6 266/1/6 272/1/6
f 267/1/6 268/1/6 273/1/6
f 272/2/6 267/2/6 273/2/6
f 268/1/6 261/1/6 274/1/6
f 273/1/6 268/1/6 274/1/6
f 270/1/6 271/1/6 275/1/6
f 271/2/6 272/2/6 276/2/6
f 275/1/6 271/1/6 276/1/6
f 272/1/6 273/1/6 277/1/6
f 276/2/6 272/2/6 277/2/6
f 277/1/6 273/1/6 278/1/6
f 276/1/6 277/1/6 279/1/6
f 279/1/6 277/1/6 280/1/6
